<svg width="411" height="158" viewBox="0 0 411 158" fill="none" xmlns="http://www.w3.org/2000/svg">
<path d="M15.3443 136.393C11.7443 140.793 5.17763 143.893 2.3443 144.893C-0.82237 153.06 -3.2557 165.793 12.3443 151.393C31.8443 133.393 39.8443 130.393 47.8443 125.393C55.8443 120.393 85.3443 119.893 95.3443 126.893C105.344 133.893 122.844 139.393 130.844 136.393C138.844 133.393 132.344 140.393 160.844 132.893C189.344 125.393 140.344 118.893 142.844 103.393C144.844 90.9931 140.678 88.8931 138.344 89.3931C133.011 91.7264 123.244 93.6931 126.844 82.8931C131.344 69.3931 121.344 61.3931 124.844 60.3931C128.344 59.3931 137.844 72.8931 139.344 74.3931C140.844 75.8931 144.844 97.3931 159.344 98.3931C173.844 99.3931 179.344 106.393 184.844 114.393C190.344 122.393 206.844 127.893 216.344 133.893C225.844 139.893 236.844 137.893 229.844 128.893C222.844 119.893 188.844 117.393 192.344 106.393C195.144 97.5931 193.511 85.3931 192.344 80.3931C187.511 78.7264 179.844 71.5931 187.844 56.3931C197.844 37.3931 184.844 18.8931 190.344 20.3931C194.744 21.5931 210.511 50.2264 217.844 64.3931C222.511 68.0597 232.644 77.4931 235.844 85.8931C239.844 96.3931 248.844 104.393 250.844 106.393C252.844 108.393 273.344 117.393 278.344 120.393C283.344 123.393 294.344 129.393 307.344 132.893C320.344 136.393 321.344 129.893 320.344 121.393C319.344 112.893 291.844 98.8931 284.844 93.3931C279.244 88.9931 279.178 78.8931 279.844 74.3931C279.844 74.3931 310.344 101.893 315.344 102.393C320.344 102.893 329.344 106.393 337.344 117.393C345.344 128.393 352.844 130.893 357.344 132.893C361.844 134.893 385.344 143.393 397.344 151.393C409.344 159.393 412.344 153.893 409.844 148.893C407.344 143.893 384.844 130.893 370.844 127.393C356.844 123.893 349.344 117.393 340.844 106.393C334.044 97.5931 323.344 94.0597 318.844 93.3931C311.178 92.0597 294.444 85.5931 288.844 70.3931C283.244 55.1931 273.844 57.3931 269.844 60.3931C266.344 64.2264 258.444 72.0931 254.844 72.8931C251.244 73.6931 245.011 75.8931 242.344 76.8931C242.344 76.8931 234.844 67.3931 229.344 61.3931C223.844 55.3931 218.344 46.3935 211.344 32.3931C204.344 18.3926 190.844 5.89328 184.844 3.39328C178.844 0.893285 172.844 -6.10672 167.844 12.3933C162.844 30.8933 151.844 34.8933 144.844 40.3933C139.244 44.7933 134.511 50.56 132.844 52.8933C132.844 53.3934 130.744 52.7935 122.344 46.3935C113.944 39.9935 109.511 41.0602 108.344 42.3935C108.344 42.3935 89.3443 72.8935 83.8443 76.3935C78.3443 79.8935 66.3443 88.3935 63.8443 91.3935C61.8443 93.7935 46.011 110.394 38.3443 118.394C38.3443 118.394 19.8443 130.893 15.3443 136.393Z" fill="white"/>
</svg>
